<svg width="874" height="175" viewBox="0 0 874 175" fill="none" xmlns="http://www.w3.org/2000/svg">
<path fill-rule="evenodd" clip-rule="evenodd" d="M85.7417 66.9892C96.0954 64.7727 103.868 55.7587 103.866 45.0083C103.866 32.599 93.5111 22.5042 80.7845 22.5042H0V0H80.7845C106.238 0 126.947 20.1897 126.947 45.007C126.947 53.5497 124.493 61.544 120.237 68.3553C140.242 73.2851 155.091 90.9816 155.091 111.996C155.091 132.555 140.88 149.937 121.533 155.299L132.01 174.802H101.129L71.6906 134.5H108.931C121.658 134.5 132.012 124.406 132.01 111.998C132.01 99.5882 121.655 89.4934 108.928 89.4934H28.1439V66.9892H85.7417ZM0.00260857 33.757H80.787C87.1602 33.757 92.3267 38.7943 92.3294 45.0078C92.3294 51.2227 87.1615 56.2599 80.7884 56.2599H23.0846V123.771H0.00260857V33.757ZM28.1466 100.743H108.931C115.304 100.743 120.471 105.78 120.473 111.994C120.473 118.209 115.306 123.246 108.932 123.246H51.2287V170.334H28.1466V100.743Z" fill="#66D7AE"/>
<path d="M186.428 115.401V59.5038H218.653C226.14 59.5038 231.813 60.7709 235.672 63.3051C239.589 65.7818 241.547 69.4967 241.547 74.45C241.547 77.6178 240.77 80.1232 239.215 81.9663C237.659 83.7518 235.442 85.0765 232.562 85.9404C229.74 86.8044 226.399 87.3515 222.54 87.5819L222.886 86.9772C225.708 87.0348 228.358 87.2363 230.834 87.5819C233.369 87.9275 235.586 88.5611 237.487 89.4826C239.387 90.4041 240.885 91.7 241.979 93.3703C243.073 94.983 243.621 97.1141 243.621 99.7635C243.621 103.219 242.699 106.099 240.856 108.403C239.013 110.649 236.45 112.348 233.167 113.5C229.884 114.652 226.083 115.286 221.763 115.401H186.428ZM197.918 105.898H220.553C224.182 105.898 226.975 105.322 228.934 104.17C230.892 102.96 231.871 101.059 231.871 98.4676C231.871 96.5669 231.295 95.1846 230.143 94.3207C228.991 93.4567 227.465 92.9384 225.564 92.7656C223.664 92.5352 221.619 92.42 219.43 92.42H197.918V105.898ZM197.918 83.1758H218.221C221.849 83.1758 224.643 82.6574 226.601 81.6207C228.559 80.5264 229.538 78.6833 229.538 76.0915C229.538 73.4997 228.559 71.6854 226.601 70.6486C224.643 69.5543 222.051 69.0072 218.825 69.0072H197.918V83.1758ZM302.047 115.401H290.816V72.4629H302.047V115.401ZM291.42 94.7526L291.507 97.6901C291.391 98.4964 291.104 99.6771 290.643 101.232C290.182 102.73 289.462 104.342 288.483 106.07C287.561 107.798 286.352 109.468 284.854 111.081C283.357 112.636 281.514 113.932 279.325 114.969C277.136 115.948 274.545 116.438 271.55 116.438C269.188 116.438 266.856 116.15 264.552 115.574C262.305 114.998 260.261 114.047 258.418 112.723C256.575 111.34 255.106 109.497 254.012 107.193C252.917 104.89 252.37 101.981 252.37 98.4676V72.4629H263.601V96.5669C263.601 99.3315 264.033 101.52 264.897 103.133C265.819 104.688 267.144 105.782 268.871 106.416C270.599 107.049 272.644 107.366 275.005 107.366C278.116 107.366 280.794 106.704 283.04 105.379C285.286 103.997 287.101 102.327 288.483 100.368C289.923 98.41 290.902 96.5381 291.42 94.7526ZM363.245 98.4676C362.957 102.211 361.747 105.437 359.616 108.144C357.543 110.851 354.663 112.924 350.977 114.364C347.291 115.746 342.914 116.438 337.845 116.438C332.546 116.438 327.795 115.602 323.59 113.932C319.443 112.204 316.16 109.699 313.741 106.416C311.38 103.075 310.199 98.9572 310.199 94.0615C310.199 89.1658 311.38 85.0477 313.741 81.7071C316.16 78.3665 319.443 75.8323 323.59 74.1044C327.795 72.3765 332.546 71.5126 337.845 71.5126C342.914 71.5126 347.262 72.2325 350.891 73.6724C354.519 75.0548 357.37 77.0706 359.444 79.72C361.575 82.3695 362.813 85.5661 363.159 89.3098H352.878C351.899 86.43 350.084 84.1837 347.435 82.5711C344.785 80.9584 341.589 80.152 337.845 80.152C334.85 80.152 332.114 80.6704 329.638 81.7071C327.219 82.7438 325.26 84.2989 323.763 86.3724C322.323 88.3883 321.603 90.9513 321.603 94.0615C321.603 97.1141 322.323 99.6771 323.763 101.751C325.203 103.766 327.161 105.293 329.638 106.329C332.114 107.309 334.85 107.798 337.845 107.798C341.877 107.798 345.16 106.992 347.694 105.379C350.286 103.766 352.043 101.463 352.964 98.4676H363.245ZM372.968 115.401V59.5038H410.895C415.215 59.5038 418.959 60.1085 422.127 61.3181C425.352 62.47 427.858 64.3131 429.643 66.8473C431.429 69.3239 432.321 72.5205 432.321 76.4371C432.321 79.0865 431.86 81.3327 430.939 83.1758C430.017 85.0189 428.721 86.5164 427.051 87.6683C425.439 88.8202 423.567 89.713 421.436 90.3465C419.305 90.9225 417.029 91.2969 414.61 91.4697L413.401 90.7785C417.433 90.8361 420.744 91.1817 423.336 91.8152C425.928 92.3912 427.858 93.4855 429.125 95.0982C430.449 96.6533 431.112 98.986 431.112 102.096V115.401H419.621V102.874C419.621 100.743 419.247 99.1012 418.498 97.9492C417.749 96.7397 416.396 95.9046 414.438 95.4438C412.537 94.983 409.772 94.7526 406.144 94.7526H384.459V115.401H372.968ZM384.459 85.7676H410.895C414.121 85.7676 416.569 84.9901 418.239 83.435C419.967 81.8799 420.831 79.7776 420.831 77.1282C420.831 74.594 419.967 72.6645 418.239 71.3398C416.569 70.0151 414.121 69.3527 410.895 69.3527H384.459V85.7676ZM481.76 101.146H492.645C492.185 104.083 490.946 106.704 488.93 109.008C486.972 111.312 484.294 113.126 480.896 114.451C477.498 115.775 473.351 116.438 468.455 116.438C462.983 116.438 458.145 115.574 453.941 113.846C449.736 112.06 446.453 109.497 444.092 106.157C441.73 102.816 440.55 98.7844 440.55 94.0615C440.55 89.3386 441.702 85.3069 444.005 81.9663C446.309 78.5681 449.506 75.9763 453.595 74.1908C457.742 72.4053 462.58 71.5126 468.109 71.5126C473.754 71.5126 478.448 72.4053 482.192 74.1908C485.935 75.9763 488.7 78.6833 490.486 82.3119C492.329 85.8828 493.106 90.4617 492.818 96.0486H451.867C452.155 98.2372 452.962 100.224 454.286 102.01C455.669 103.795 457.512 105.206 459.816 106.243C462.177 107.28 464.97 107.798 468.196 107.798C471.767 107.798 474.733 107.193 477.094 105.984C479.513 104.717 481.069 103.104 481.76 101.146ZM467.591 80.0656C463.444 80.0656 460.075 80.9872 457.483 82.8302C454.891 84.6157 453.221 86.8332 452.472 89.4826H481.673C481.385 86.6028 480.003 84.3277 477.526 82.6574C475.107 80.9296 471.796 80.0656 467.591 80.0656ZM522.601 108.835C517.936 108.835 513.818 108.144 510.247 106.761C506.734 105.322 503.998 103.219 502.039 100.455C500.081 97.6901 499.102 94.3495 499.102 90.4329C499.102 86.574 500.052 83.2334 501.953 80.4112C503.854 77.589 506.561 75.4003 510.074 73.8452C513.645 72.2901 517.821 71.5126 522.601 71.5126C523.926 71.5126 525.193 71.599 526.403 71.7718C527.67 71.9446 528.908 72.1749 530.118 72.4629L551.803 72.5493V81.016C548.865 81.0736 545.87 80.728 542.818 79.9792C539.823 79.1729 537.173 78.3089 534.869 77.3874L534.61 76.7826C536.568 77.7042 538.411 78.8561 540.139 80.2384C541.867 81.5631 543.249 83.1182 544.286 84.9037C545.381 86.6316 545.928 88.6475 545.928 90.9513C545.928 94.6951 544.977 97.9204 543.077 100.627C541.176 103.277 538.469 105.322 534.956 106.761C531.5 108.144 527.382 108.835 522.601 108.835ZM537.029 133.112V131.038C537.029 128.389 536.165 126.546 534.437 125.509C532.767 124.472 530.463 123.954 527.526 123.954H514.135C511.543 123.954 509.354 123.752 507.569 123.349C505.841 122.946 504.458 122.37 503.422 121.621C502.385 120.873 501.636 119.98 501.175 118.943C500.715 117.964 500.484 116.898 500.484 115.746C500.484 113.443 501.233 111.715 502.731 110.563C504.228 109.353 506.244 108.547 508.778 108.144C511.312 107.741 514.106 107.654 517.158 107.885L522.601 108.835C518.973 108.95 516.266 109.267 514.48 109.785C512.752 110.246 511.888 111.196 511.888 112.636C511.888 113.5 512.234 114.191 512.925 114.71C513.616 115.17 514.595 115.401 515.863 115.401H529.945C533.804 115.401 537.087 115.804 539.794 116.61C542.558 117.474 544.661 118.885 546.101 120.844C547.54 122.86 548.26 125.595 548.26 129.051V133.112H537.029ZM522.601 100.714C525.078 100.714 527.238 100.311 529.081 99.5043C530.982 98.698 532.45 97.5461 533.487 96.0486C534.524 94.4935 535.042 92.6504 535.042 90.5193C535.042 88.3307 534.524 86.4588 533.487 84.9037C532.45 83.3486 531.01 82.1679 529.167 81.3615C527.324 80.4976 525.135 80.0656 522.601 80.0656C520.125 80.0656 517.936 80.4976 516.035 81.3615C514.135 82.1679 512.666 83.3486 511.629 84.9037C510.592 86.4588 510.074 88.3307 510.074 90.5193C510.074 92.6504 510.592 94.4935 511.629 96.0486C512.666 97.5461 514.106 98.698 515.949 99.5043C517.85 100.311 520.067 100.714 522.601 100.714ZM579.285 116.351C575.023 116.351 571.135 115.43 567.622 113.587C564.166 111.686 561.402 109.065 559.328 105.725C557.312 102.327 556.304 98.41 556.304 93.9751C556.304 89.425 557.341 85.4797 559.415 82.1391C561.488 78.7985 564.282 76.2067 567.795 74.3636C571.366 72.4629 575.398 71.5126 579.89 71.5126C584.843 71.5126 588.818 72.5205 591.813 74.5364C594.865 76.4947 597.083 79.1729 598.465 82.5711C599.847 85.9692 600.538 89.7706 600.538 93.9751C600.538 96.5093 600.135 99.1012 599.329 101.751C598.522 104.342 597.284 106.761 595.614 109.008C593.944 111.196 591.755 112.982 589.048 114.364C586.341 115.689 583.087 116.351 579.285 116.351ZM582.914 107.712C586.312 107.712 589.249 107.136 591.726 105.984C594.203 104.832 596.103 103.219 597.428 101.146C598.753 99.0724 599.415 96.6821 599.415 93.9751C599.415 91.0377 598.724 88.5611 597.342 86.5452C596.017 84.4717 594.116 82.9166 591.64 81.8799C589.221 80.7856 586.312 80.2384 582.914 80.2384C578.133 80.2384 574.418 81.5055 571.769 84.0398C569.12 86.5164 567.795 89.8282 567.795 93.9751C567.795 96.7397 568.428 99.1588 569.696 101.232C570.963 103.248 572.719 104.832 574.966 105.984C577.269 107.136 579.919 107.712 582.914 107.712ZM599.415 72.4629H610.646V115.401H600.193C600.193 115.401 600.106 114.854 599.934 113.759C599.818 112.607 599.703 111.168 599.588 109.44C599.473 107.712 599.415 106.013 599.415 104.342V72.4629ZM621.675 55.1841H632.906V115.401H621.675V55.1841ZM640.81 59.5038H699.731V69.0935H640.81V59.5038ZM664.569 67.884H676.059V115.401H664.569V67.884ZM738.749 101.146H749.635C749.174 104.083 747.936 106.704 745.92 109.008C743.961 111.312 741.283 113.126 737.885 114.451C734.487 115.775 730.34 116.438 725.444 116.438C719.973 116.438 715.134 115.574 710.93 113.846C706.725 112.06 703.442 109.497 701.081 106.157C698.72 102.816 697.539 98.7844 697.539 94.0615C697.539 89.3386 698.691 85.3069 700.995 81.9663C703.298 78.5681 706.495 75.9763 710.584 74.1908C714.731 72.4053 719.569 71.5126 725.099 71.5126C730.743 71.5126 735.437 72.4053 739.181 74.1908C742.925 75.9763 745.689 78.6833 747.475 82.3119C749.318 85.8828 750.095 90.4617 749.807 96.0486H708.856C709.144 98.2372 709.951 100.224 711.276 102.01C712.658 103.795 714.501 105.206 716.805 106.243C719.166 107.28 721.96 107.798 725.185 107.798C728.756 107.798 731.722 107.193 734.084 105.984C736.503 104.717 738.058 103.104 738.749 101.146ZM724.58 80.0656C720.433 80.0656 717.064 80.9872 714.472 82.8302C711.88 84.6157 710.21 86.8332 709.461 89.4826H738.663C738.375 86.6028 736.992 84.3277 734.516 82.6574C732.097 80.9296 728.785 80.0656 724.58 80.0656ZM809.137 98.4676C808.849 102.211 807.64 105.437 805.509 108.144C803.435 110.851 800.555 112.924 796.869 114.364C793.183 115.746 788.806 116.438 783.737 116.438C778.439 116.438 773.687 115.602 769.482 113.932C765.335 112.204 762.052 109.699 759.633 106.416C757.272 103.075 756.091 98.9572 756.091 94.0615C756.091 89.1658 757.272 85.0477 759.633 81.7071C762.052 78.3665 765.335 75.8323 769.482 74.1044C773.687 72.3765 778.439 71.5126 783.737 71.5126C788.806 71.5126 793.154 72.2325 796.783 73.6724C800.411 75.0548 803.262 77.0706 805.336 79.72C807.467 82.3695 808.705 85.5661 809.051 89.3098H798.77C797.791 86.43 795.977 84.1837 793.327 82.5711C790.678 80.9584 787.481 80.152 783.737 80.152C780.742 80.152 778.007 80.6704 775.53 81.7071C773.111 82.7438 771.153 84.2989 769.655 86.3724C768.215 88.3883 767.495 90.9513 767.495 94.0615C767.495 97.1141 768.215 99.6771 769.655 101.751C771.095 103.766 773.053 105.293 775.53 106.329C778.007 107.309 780.742 107.798 783.737 107.798C787.769 107.798 791.052 106.992 793.586 105.379C796.178 103.766 797.935 101.463 798.856 98.4676H809.137ZM856.615 115.401V91.8152C856.615 89.4538 856.212 87.4955 855.405 85.9404C854.599 84.3853 853.303 83.2046 851.518 82.3983C849.79 81.5919 847.457 81.1887 844.52 81.1887C841.698 81.1887 839.135 81.7359 836.831 82.8302C834.527 83.867 832.655 85.2493 831.215 86.9772C829.775 88.6475 828.969 90.4329 828.796 92.3336L828.71 87.5819C828.998 85.6812 829.66 83.7806 830.697 81.8799C831.733 79.9792 833.116 78.2513 834.844 76.6962C836.571 75.1411 838.645 73.9028 841.064 72.9813C843.541 72.0022 846.305 71.5126 849.358 71.5126C852.007 71.5126 854.455 71.8582 856.701 72.5493C858.948 73.1829 860.906 74.1908 862.576 75.5731C864.246 76.9554 865.542 78.6833 866.464 80.7568C867.385 82.7726 867.846 85.1629 867.846 87.9275V115.401H856.615ZM818.17 115.401V55.1841H829.401V115.401H818.17Z" fill="white"/>
</svg>
